<svg xmlns="http://www.w3.org/2000/svg" xmlns:xlink="http://www.w3.org/1999/xlink" width="500" zoomAndPan="magnify" viewBox="0 0 375 374.999991" height="500" preserveAspectRatio="xMidYMid meet" version="1.0"><defs><clipPath id="1b44f1dbd4"><path d="M 24 86 L 351.898438 86 L 351.898438 292.476562 L 24 292.476562 Z M 24 86 " clip-rule="nonzero"/></clipPath></defs><rect x="-37.5" width="450" fill="#ffffff" y="-37.499999" height="449.999989" fill-opacity="1"/><rect x="-37.5" width="450" fill="#ffffff" y="-37.499999" height="449.999989" fill-opacity="1"/><path fill="#ff66c4" d="M 349.617188 227.523438 C 349.1875 245.152344 335.40625 260.839844 318.621094 266.253906 C 304.460938 270.832031 288.851562 268.878906 275.167969 262.820312 C 273.019531 267.691406 268.84375 271.707031 263.71875 273.210938 C 257.054688 275.164062 249.441406 272.6875 244.847656 267.535156 C 238.773438 274.007812 231.003906 278.984375 222.761719 282.367188 C 210.273438 287.5 196.6875 289.316406 183.21875 290.308594 C 170.609375 291.222656 157.570312 291.394531 145.75 286.917969 C 136.457031 283.398438 128.003906 276.429688 124.054688 267.519531 C 119.035156 273.394531 110.480469 276.304688 103.007812 274.070312 C 95.796875 271.917969 90.371094 265.183594 89.117188 257.816406 C 85.316406 260.734375 81.257812 263.308594 76.910156 265.332031 C 67.21875 269.859375 55.828125 271.472656 45.722656 267.972656 C 35.617188 264.472656 27.238281 255.261719 26.417969 244.597656 C 25.730469 235.617188 30.191406 227.007812 35.730469 219.914062 C 45.886719 206.929688 60.183594 197.257812 75.96875 192.546875 C 71.925781 190.863281 68.375 187.804688 66.179688 183.992188 C 62.160156 177.011719 62.320312 168.128906 65.394531 160.6875 C 68.472656 153.242188 74.179688 147.136719 80.660156 142.34375 C 97.03125 130.234375 119.03125 126.175781 138.695312 131.371094 C 138.015625 125.367188 139.230469 119.097656 141.914062 113.648438 C 145.972656 105.425781 153.097656 98.992188 161.125 94.570312 C 180.292969 84.015625 205.296875 85.042969 223.539062 97.132812 C 239.035156 107.40625 249.082031 125.289062 250.375 143.792969 C 255.828125 142.414062 261.816406 143.066406 266.734375 145.816406 C 273.664062 149.703125 278.121094 157.578125 278.003906 165.507812 C 285.023438 158.953125 296.871094 158.15625 304.609375 163.914062 C 310.921875 168.609375 313.839844 177.148438 312.402344 184.808594 C 320.875 186.625 328.914062 190.40625 335.386719 196.140625 C 344.25 204.011719 349.910156 215.675781 349.617188 227.523438 Z M 349.617188 227.523438 " fill-opacity="1" fill-rule="nonzero"/><g clip-path="url(#1b44f1dbd4)"><path fill="#000000" d="M 340.609375 199.25 C 333.78125 191.351562 324.230469 186.246094 314.152344 183.824219 C 315.320312 174.828125 311.101562 165.28125 302.828125 161.105469 C 295.519531 157.417969 286.226562 158.121094 279.445312 162.660156 C 278.761719 156.75 275.917969 151.171875 271.347656 147.261719 C 265.976562 142.65625 258.734375 141.03125 251.851562 142.179688 C 249.8125 120.820312 236.546875 100.882812 216.933594 91.804688 C 196.796875 82.476562 171.527344 84.371094 153.644531 97.796875 C 143.554688 105.375 136.480469 116.785156 136.953125 129.566406 C 121.511719 126.125 104.976562 127.980469 90.691406 134.792969 C 76.316406 141.65625 61.496094 154.796875 61.507812 171.988281 C 61.515625 180.347656 65.34375 188.101562 72.417969 192.347656 C 63.636719 195.382812 55.390625 199.824219 48.082031 205.585938 C 39.917969 212.011719 32.300781 220.183594 27.890625 229.683594 C 23.554688 239.023438 23.621094 249.519531 29.824219 258.003906 C 35.71875 266.058594 45.011719 270.527344 54.867188 271.125 C 66.898438 271.859375 78.371094 267.167969 88.039062 260.3125 C 90.082031 267.441406 95.621094 273.53125 102.898438 275.484375 C 110.152344 277.429688 118.039062 275.039062 123.523438 270.0625 C 126.984375 276.527344 132.570312 281.714844 138.929688 285.304688 C 146.734375 289.714844 155.753906 291.492188 164.625 291.992188 C 174.257812 292.542969 184.03125 291.757812 193.605469 290.648438 C 203.007812 289.558594 212.363281 287.722656 221.238281 284.378906 C 229.984375 281.085938 238.109375 276.183594 244.769531 269.625 C 249.257812 273.792969 255.542969 275.835938 261.632812 274.988281 C 267.789062 274.128906 272.964844 270.015625 275.917969 264.671875 C 288.917969 270.015625 303.597656 271.941406 317.253906 268.03125 C 328.894531 264.699219 339.117188 257.050781 345.417969 246.691406 C 348.933594 240.914062 351.027344 234.304688 351.238281 227.53125 C 351.414062 217.105469 347.402344 207.09375 340.609375 199.25 Z M 333.28125 256.542969 C 323.675781 264.667969 311.339844 268.089844 298.871094 267.359375 C 291.011719 266.902344 283.300781 264.832031 276.109375 261.675781 C 275.257812 261.304688 274.070312 261.558594 273.652344 262.464844 C 271.328125 267.574219 266.789062 271.675781 261.09375 272.433594 C 255.480469 273.175781 249.851562 270.695312 246.097656 266.59375 C 245.417969 265.847656 244.109375 266.261719 243.535156 266.867188 C 231.269531 279.800781 213.832031 285.285156 196.617188 287.644531 C 187.734375 288.859375 178.675781 289.589844 169.707031 289.503906 C 160.796875 289.421875 151.609375 288.277344 143.484375 284.40625 C 135.761719 280.726562 129.09375 274.710938 125.527344 266.855469 C 125.046875 265.785156 123.339844 266.175781 122.738281 266.863281 C 118.078125 272.183594 110.480469 274.867188 103.582031 272.796875 C 96.765625 270.753906 91.957031 264.308594 90.71875 257.476562 C 90.5 256.300781 88.828125 256.3125 88.078125 256.882812 C 79.6875 263.277344 69.816406 268.101562 59.113281 268.515625 C 49.660156 268.878906 40.433594 265.59375 34.136719 258.382812 C 27.722656 251.042969 26.5 241.382812 30.054688 232.410156 C 33.652344 223.335938 40.574219 215.492188 47.949219 209.25 C 56.207031 202.261719 65.878906 196.964844 76.242188 193.835938 C 77.238281 193.535156 78.339844 192.03125 76.910156 191.410156 C 69.511719 188.210938 65.191406 181.175781 64.769531 173.230469 C 64.34375 165.324219 67.601562 157.796875 72.574219 151.792969 C 82.355469 139.976562 97.582031 133.003906 112.589844 131.035156 C 121.113281 129.917969 129.820312 130.488281 138.132812 132.648438 C 139.171875 132.917969 140.421875 132.171875 140.300781 131.035156 C 137.878906 107.476562 161.59375 91.789062 182.304688 89.113281 C 203.285156 86.394531 224.582031 95.101562 237.078125 112.257812 C 243.855469 121.574219 247.933594 132.65625 248.789062 144.136719 C 248.847656 144.953125 250.035156 145.222656 250.65625 145.078125 C 257.195312 143.511719 264.175781 144.910156 269.238281 149.449219 C 273.742188 153.492188 276.414062 159.449219 276.394531 165.507812 C 276.390625 166.800781 278.152344 167.265625 279.046875 166.457031 C 285.011719 161.023438 294.214844 159.769531 301.363281 163.601562 C 308.847656 167.617188 312.226562 176.683594 310.796875 184.800781 C 310.683594 185.4375 311.273438 185.964844 311.835938 186.089844 C 321.730469 188.257812 331.015625 193.097656 337.789062 200.730469 C 344.261719 208.035156 348.179688 217.707031 348.011719 227.511719 C 347.652344 238.84375 341.851562 249.292969 333.28125 256.542969 Z M 333.28125 256.542969 " fill-opacity="1" fill-rule="nonzero"/></g></svg>